<svg viewBox="0 0 156 77" xmlns="http://www.w3.org/2000/svg"><g fill="none" fill-rule="evenodd"><path fill="#FFF" d="M0 0h156v77H0z"/><path d="M31.056 26.192c0-2.603-.256-4.373-.768-5.312-.512-.939-1.344-1.408-2.496-1.408-.896 0-1.61.235-2.144.704-.533.47-.939 1.301-1.216 2.496s-.459 2.805-.544 4.832c-.085 2.027-.128 4.576-.128 7.648s.043 5.621.128 7.648c.085 2.027.267 3.637.544 4.832.277 1.195.683 2.027 1.216 2.496.533.47 1.248.704 2.144.704.725 0 1.323-.181 1.792-.544.47-.363.832-.97 1.088-1.824.256-.853.437-1.995.544-3.424.107-1.43.16-3.232.16-5.408h11.52v3.392c0 3.2-.427 5.824-1.28 7.872s-1.984 3.659-3.392 4.832a11.282 11.282 0 01-4.832 2.368c-1.813.405-3.68.608-5.6.608-3.328 0-6.059-.405-8.192-1.216-2.133-.81-3.797-2.165-4.992-4.064-1.195-1.899-2.016-4.352-2.464-7.36-.448-3.008-.672-6.645-.672-10.912 0-4.352.267-8.043.8-11.072.533-3.03 1.44-5.483 2.72-7.36 1.28-1.877 2.965-3.232 5.056-4.064 2.09-.832 4.672-1.248 7.744-1.248 2.688 0 4.97.341 6.848 1.024 1.877.683 3.403 1.653 4.576 2.912 1.173 1.259 2.027 2.773 2.56 4.544.533 1.77.8 3.765.8 5.984v2.88h-11.52v-2.56zm27.52-13.888v32.96c0 2.219.32 3.701.96 4.448.64.747 1.515 1.12 2.624 1.12 1.11 0 1.984-.373 2.624-1.12.64-.747.96-2.23.96-4.448v-32.96h11.904v29.952c0 3.2-.341 5.867-1.024 8s-1.675 3.84-2.976 5.12c-1.301 1.28-2.912 2.155-4.832 2.624-1.92.47-4.139.704-6.656.704-2.475 0-4.683-.235-6.624-.704-1.941-.47-3.563-1.344-4.864-2.624-1.301-1.28-2.293-2.987-2.976-5.12-.683-2.133-1.024-4.8-1.024-8V12.304h11.904zm24.192 0h27.072v9.728H94.672v7.808h14.208v9.344H94.672v9.088h15.744V58H82.768V12.304z" fill="#323232"/><path stroke="#383838" stroke-width="4" d="M2 2h152v73H2z"/></g></svg>