<?xml version="1.0" encoding="UTF-8"?>
<svg width="156px" height="77px" viewBox="0 0 156 77" version="1.1" xmlns="http://www.w3.org/2000/svg" xmlns:xlink="http://www.w3.org/1999/xlink">
    <!-- Generator: Sketch 49 (51002) - http://www.bohemiancoding.com/sketch -->
    <title>logo</title>
    <desc>Created with Sketch.</desc>
    <defs></defs>
    <g id="logo" stroke="none" stroke-width="1" fill="none" fill-rule="evenodd">
        <path d="M31.056,26.192 C31.056,23.5893203 30.8000026,21.8186714 30.288,20.88 C29.7759974,19.9413286 28.9440058,19.472 27.792,19.472 C26.8959955,19.472 26.181336,19.7066643 25.648,20.176 C25.114664,20.6453357 24.7093347,21.4773274 24.432,22.672 C24.1546653,23.8666726 23.9733338,25.4773232 23.888,27.504 C23.8026662,29.5306768 23.76,32.0799846 23.76,35.152 C23.76,38.2240154 23.8026662,40.7733232 23.888,42.8 C23.9733338,44.8266768 24.1546653,46.4373274 24.432,47.632 C24.7093347,48.8266726 25.114664,49.6586643 25.648,50.128 C26.181336,50.5973357 26.8959955,50.832 27.792,50.832 C28.517337,50.832 29.1146643,50.6506685 29.584,50.288 C30.0533357,49.9253315 30.4159987,49.3173376 30.672,48.464 C30.9280013,47.6106624 31.1093328,46.4693405 31.216,45.04 C31.3226672,43.6106595 31.376,41.8080109 31.376,39.632 L42.896,39.632 L42.896,43.024 C42.896,46.224016 42.4693376,48.8479898 41.616,50.896 C40.7626624,52.9440102 39.632007,54.5546608 38.224,55.728 C36.815993,56.9013392 35.2053424,57.6906646 33.392,58.096 C31.5786576,58.5013354 29.7120096,58.704 27.792,58.704 C24.4639834,58.704 21.733344,58.2986707 19.6,57.488 C17.466656,56.6773293 15.8026726,55.3226762 14.608,53.424 C13.4133274,51.5253238 12.5920022,49.072015 12.144,46.064 C11.6959978,43.055985 11.472,39.418688 11.472,35.152 C11.472,30.7999782 11.738664,27.1093485 12.272,24.08 C12.805336,21.0506515 13.7119936,18.5973427 14.992,16.72 C16.2720064,14.8426573 17.9573229,13.4880042 20.048,12.656 C22.1386771,11.8239958 24.7199846,11.408 27.792,11.408 C30.4800134,11.408 32.7626573,11.7493299 34.64,12.432 C36.5173427,13.1146701 38.0426608,14.085327 39.216,15.344 C40.3893392,16.602673 41.242664,18.1173245 41.776,19.888 C42.309336,21.6586755 42.576,23.6533222 42.576,25.872 L42.576,28.752 L31.056,28.752 L31.056,26.192 Z M58.576,12.304 L58.576,45.264 C58.576,47.4826778 58.8959968,48.9653296 59.536,49.712 C60.1760032,50.4586704 61.0506611,50.832 62.16,50.832 C63.2693389,50.832 64.1439968,50.4586704 64.784,49.712 C65.4240032,48.9653296 65.744,47.4826778 65.744,45.264 L65.744,12.304 L77.648,12.304 L77.648,42.256 C77.648,45.456016 77.3066701,48.122656 76.624,50.256 C75.9413299,52.389344 74.9493398,54.0959936 73.648,55.376 C72.3466602,56.6560064 70.7360096,57.5306643 68.816,58 C66.8959904,58.4693357 64.6773459,58.704 62.16,58.704 C59.685321,58.704 57.477343,58.4693357 55.536,58 C53.594657,57.5306643 51.9733398,56.6560064 50.672,55.376 C49.3706602,54.0959936 48.3786701,52.389344 47.696,50.256 C47.0133299,48.122656 46.672,45.456016 46.672,42.256 L46.672,12.304 L58.576,12.304 Z M82.768,12.304 L109.84,12.304 L109.84,22.032 L94.672,22.032 L94.672,29.84 L108.88,29.84 L108.88,39.184 L94.672,39.184 L94.672,48.272 L110.416,48.272 L110.416,58 L82.768,58 L82.768,12.304 Z" id="CUE" fill="#323232"></path>
        <rect id="Rectangle" stroke="#383838" stroke-width="4" x="2" y="2" width="152" height="73"></rect>
    </g>
</svg>